<svg width="20" height="20" viewBox="0 0 20 20" fill="none" xmlns="http://www.w3.org/2000/svg">
<path d="M9.99969 2.375C11.0192 2.375 11.8369 2.95015 12.695 4.04004C13.544 5.1184 14.4537 6.72808 15.653 8.85449L16.0163 9.49805C17.0095 11.259 17.7618 12.5972 18.153 13.6572C18.5497 14.7321 18.5885 15.5572 18.0973 16.2617C17.6096 16.9613 16.7706 17.295 15.5173 17.46C14.273 17.6237 12.5847 17.625 10.3542 17.625H9.64617C7.41577 17.625 5.72736 17.6237 4.48309 17.46C3.2299 17.295 2.3908 16.9612 1.90301 16.2617C1.41192 15.5573 1.44975 14.732 1.84637 13.6572C2.23763 12.5972 2.99081 11.2591 3.98406 9.49805L4.34734 8.85449C5.54667 6.72802 6.45638 5.11838 7.30535 4.04004C8.16333 2.95026 8.98034 2.37512 9.99969 2.375ZM9.99969 2.625C9.09486 2.62511 8.34196 3.12703 7.50164 4.19434C6.66032 5.26295 5.75289 6.86967 4.53484 9.0293L4.23211 9.56641C3.21948 11.3618 2.46752 12.6953 2.08074 13.7432C1.69423 14.7903 1.68723 15.5144 2.10809 16.1182C2.53332 16.7281 3.28005 17.0493 4.51531 17.2119C5.74913 17.3743 7.4339 17.375 9.69695 17.375H10.3034C12.5663 17.375 14.2513 17.3743 15.485 17.2119C16.7201 17.0493 17.4671 16.7281 17.8923 16.1182C18.313 15.5144 18.3051 14.7902 17.9186 13.7432C17.5318 12.6953 16.7798 11.3617 15.7673 9.56641L15.4645 9.0293C14.2465 6.86974 13.34 5.26294 12.4987 4.19434C11.6583 3.12681 10.9047 2.625 9.99969 2.625ZM9.99969 13C10.1837 13 10.3335 13.1491 10.3337 13.333C10.3337 13.5171 10.1838 13.667 9.99969 13.667C9.81574 13.6668 9.66668 13.517 9.66668 13.333C9.66685 13.1492 9.81584 13.0002 9.99969 13ZM9.99969 6.54199C10.0687 6.54199 10.1247 6.59796 10.1247 6.66699V10.833C10.1247 10.902 10.0687 10.958 9.99969 10.958C9.9308 10.9578 9.87469 10.9019 9.87469 10.833V6.66699C9.87469 6.59806 9.9308 6.54216 9.99969 6.54199Z" fill="#FBE9E7" stroke="white"/>
</svg>
