<svg width="32" height="32" viewBox="0 0 32 32" fill="none" xmlns="http://www.w3.org/2000/svg">
<path d="M17.3333 14.6667V12H24V14.6667H17.3333ZM17.3333 9.33333V6.66667H28V9.33333H17.3333ZM5.95067 26.0507C4.65022 24.7502 4 23.1778 4 21.3333C4 20.2667 4.23333 19.272 4.7 18.3493C5.16667 17.4267 5.82222 16.6436 6.66667 16V8C6.66667 6.88889 7.05556 5.94444 7.83333 5.16667C8.61111 4.38889 9.55556 4 10.6667 4C11.7778 4 12.7222 4.38889 13.5 5.16667C14.2778 5.94444 14.6667 6.88889 14.6667 8V16C15.5111 16.6444 16.1667 17.428 16.6333 18.3507C17.1 19.2733 17.3333 20.2676 17.3333 21.3333C17.3333 23.1778 16.6831 24.7502 15.3827 26.0507C14.0822 27.3511 12.5102 28.0009 10.6667 28C8.82311 27.9991 7.25111 27.3502 5.95067 26.0507ZM6.66667 21.3333H14.6667C14.6667 20.6889 14.528 20.0889 14.2507 19.5333C13.9733 18.9778 13.5787 18.5111 13.0667 18.1333L12 17.3333V8C12 7.62222 11.872 7.30578 11.616 7.05067C11.36 6.79556 11.0436 6.66756 10.6667 6.66667C10.2898 6.66578 9.97333 6.79378 9.71733 7.05067C9.46133 7.30756 9.33333 7.624 9.33333 8V17.3333L8.26667 18.1333C7.75556 18.5111 7.36089 18.9778 7.08267 19.5333C6.80444 20.0889 6.66578 20.6889 6.66667 21.3333Z" fill="#5C6962"/>
</svg>
