<svg width="32" height="32" viewBox="0 0 32 32" fill="none" xmlns="http://www.w3.org/2000/svg">
<path opacity="0.2" d="M17.3174 18.6825C13.3274 12.0313 18.6474 5.38127 29.9536 6.04627C30.6249 17.3525 23.9686 22.6738 17.3174 18.6825ZM2.0324 11.0325C1.5574 19.1088 6.30865 22.9075 11.0586 20.0588C13.9086 15.3088 10.1086 10.5575 2.0324 11.0325Z" fill="#124F2C"/>
<path d="M30.9537 5.98627C30.9395 5.74162 30.8358 5.51074 30.6625 5.33746C30.4893 5.16417 30.2584 5.06055 30.0137 5.04627C23.5437 4.67127 18.3487 6.63876 16.1162 10.3238C14.6412 12.7588 14.6437 15.7188 16.0962 18.5413C15.2705 19.5238 14.6663 20.6728 14.325 21.91L12.2912 19.875C13.2687 17.8338 13.2312 15.705 12.1662 13.9388C10.5112 11.2163 6.70249 9.75001 1.97374 10.0338C1.7291 10.0481 1.49822 10.1517 1.32493 10.325C1.15165 10.4982 1.04803 10.7291 1.03374 10.9738C0.754992 15.7025 2.21624 19.5113 4.93999 21.1613C5.84035 21.711 6.87508 22.0012 7.92999 22C8.95235 21.9873 9.95881 21.7451 10.875 21.2913L14 24.4163V28C14 28.2652 14.1053 28.5196 14.2929 28.7071C14.4804 28.8947 14.7348 29 15 29C15.2652 29 15.5196 28.8947 15.7071 28.7071C15.8946 28.5196 16 28.2652 16 28V24.3138C15.9954 22.7229 16.5368 21.1786 17.5337 19.9388C18.8199 20.611 20.2464 20.9707 21.6975 20.9888C23.1005 20.9933 24.4774 20.61 25.6762 19.8813C29.3612 17.6513 31.3337 12.4563 30.9537 5.98627ZM10.7575 18.3425L7.70624 15.2925C7.51718 15.1129 7.26543 15.0142 7.00467 15.0176C6.74391 15.0209 6.49476 15.126 6.31036 15.3104C6.12596 15.4948 6.02089 15.7439 6.01755 16.0047C6.01421 16.2655 6.11287 16.5172 6.29249 16.7063L9.34374 19.7575C8.14249 20.155 6.97749 20.0563 5.97624 19.45C4.05874 18.2888 2.97374 15.54 2.99999 12C6.53874 11.9688 9.28874 13.0588 10.45 14.9763C11.0562 15.9775 11.155 17.1425 10.7575 18.3425ZM24.64 18.1725C22.965 19.1863 20.9962 19.2638 18.9962 18.4225L25.7075 11.71C25.8951 11.5225 26.0006 11.2682 26.0007 11.003C26.0008 10.7377 25.8956 10.4833 25.7081 10.2956C25.5206 10.108 25.2663 10.0025 25.0011 10.0024C24.7358 10.0023 24.4814 10.1075 24.2937 10.295L17.5812 17C16.7362 15 16.8125 13.03 17.8312 11.3563C19.5737 8.48127 23.7062 6.88127 28.9975 7.00252C29.1175 12.2925 27.5175 16.43 24.64 18.1725Z" fill="#124F2C"/>
</svg>
