<svg width="130" height="36" viewBox="0 0 130 36" fill="none" xmlns="http://www.w3.org/2000/svg">
<circle cx="18" cy="18" r="18" fill="#D9D9D9"/>
<path d="M45.1477 23.5V11.8636H47.2557V21.733H52.3807V23.5H45.1477ZM57.9261 23.6705C57.0739 23.6705 56.3352 23.483 55.7102 23.108C55.0852 22.733 54.6004 22.2083 54.2557 21.5341C53.9148 20.8598 53.7443 20.072 53.7443 19.1705C53.7443 18.2689 53.9148 17.4792 54.2557 16.8011C54.6004 16.1231 55.0852 15.5966 55.7102 15.2216C56.3352 14.8466 57.0739 14.6591 57.9261 14.6591C58.7784 14.6591 59.517 14.8466 60.142 15.2216C60.767 15.5966 61.25 16.1231 61.5909 16.8011C61.9356 17.4792 62.108 18.2689 62.108 19.1705C62.108 20.072 61.9356 20.8598 61.5909 21.5341C61.25 22.2083 60.142 23.108C59.517 23.483 58.7784 23.6705 57.9261 23.6705ZM57.9375 22.0227C58.3996 22.0227 58.786 21.8958 59.0966 21.642C59.4072 21.3845 59.6383 21.0398 59.7898 20.608C59.9451 20.1761 60.0227 19.6951 60.0227 19.1648C60.0227 18.6307 59.9451 18.1477 59.7898 17.7159C59.6383 17.2803 59.4072 16.9337 59.0966 16.6761C58.786 16.4186 58.3996 16.2898 57.9375 16.2898C57.464 16.2898 57.0701 16.4186 56.7557 16.6761C56.4451 16.9337 56.2121 17.2803 56.0568 17.7159C55.9053 18.1477 55.8295 18.6307 55.8295 19.1648C55.8295 19.6951 55.9053 20.1761 56.0568 20.608C56.2121 21.0398 56.4451 21.3845 56.7557 21.642C57.0701 21.8958 57.464 22.0227 57.9375 22.0227ZM67.6491 26.9545C66.9105 26.9545 66.276 26.8542 65.7457 26.6534C65.2154 26.4564 64.7893 26.1913 64.4673 25.858C64.1454 25.5246 63.9219 25.1553 63.7969 24.75L65.6491 24.3011C65.7325 24.4716 65.8537 24.6402 66.0128 24.8068C66.1719 24.9773 66.3859 25.1174 66.6548 25.2273C66.9276 25.3409 67.2704 25.3977 67.6832 25.3977C68.2666 25.3977 68.7495 25.2557 69.1321 24.9716C69.5147 24.6913 69.706 24.2292 69.706 23.5852V21.9318H69.6037C69.4976 22.1439 69.3423 22.3617 69.1378 22.5852C68.937 22.8087 68.67 22.9962 68.3366 23.1477C68.0071 23.2992 67.5923 23.375 67.0923 23.375C66.4219 23.375 65.8139 23.2178 65.2685 22.9034C64.7268 22.5852 64.295 22.1117 63.973 21.483C63.6548 20.8504 63.4957 20.0587 63.4957 19.108C63.4957 18.1496 63.6548 17.3409 63.973 16.6818C64.295 16.0189 64.7287 15.517 65.2741 15.1761C65.8196 14.8314 66.4276 14.6591 67.098 14.6591C67.6094 14.6591 68.0298 14.7462 68.3594 14.9205C68.6927 15.0909 68.9579 15.2973 69.1548 15.5398C69.3518 15.7784 69.5014 16.0038 69.6037 16.2159H69.7173V14.7727H71.7457V23.642C71.7457 24.3883 71.5677 25.0057 71.2116 25.4943C70.8556 25.983 70.3688 26.3485 69.7514 26.5909C69.134 26.8333 68.4332 26.9545 67.6491 26.9545ZM67.6662 21.7614C68.1018 21.7614 68.473 21.6553 68.7798 21.4432C69.0866 21.2311 69.3196 20.9261 69.4787 20.5284C69.6378 20.1307 69.7173 19.6534 69.7173 19.0966C69.7173 18.5473 69.6378 18.0663 69.4787 17.6534C69.3234 17.2405 69.0923 16.9205 68.7855 16.6932C68.4825 16.4621 68.1094 16.3466 67.6662 16.3466C67.2079 16.3466 66.8253 16.4659 66.5185 16.7045C66.2116 16.9432 65.9806 17.2708 65.8253 17.6875C65.67 18.1004 65.5923 18.5701 65.5923 19.0966C65.5923 19.6307 65.67 20.0985 65.8253 20.5C65.9844 20.8977 66.2173 21.2083 66.5241 21.4318C66.8348 21.6515 67.2154 21.7614 67.6662 21.7614ZM77.6605 23.6705C76.8082 23.6705 76.0696 23.483 75.4446 23.108C74.8196 22.733 74.3348 22.2083 73.9901 21.5341C73.6491 20.8598 73.4787 20.072 73.4787 19.1705C73.4787 18.2689 73.6491 17.4792 73.9901 16.8011C74.3348 16.1231 74.8196 15.5966 75.4446 15.2216C76.0696 14.8466 76.8082 14.6591 77.6605 14.6591C78.5128 14.6591 79.2514 14.8466 79.8764 15.2216C80.5014 15.5966 80.9844 16.1231 81.3253 16.8011C81.67 17.4792 81.8423 18.2689 81.8423 19.1705C81.8423 20.072 81.67 20.8598 81.3253 21.5341C80.9844 22.2083 80.5014 22.733 79.8764 23.108C79.2514 23.483 78.5128 23.6705 77.6605 23.6705ZM77.6719 22.0227C78.134 22.0227 78.5204 21.8958 78.831 21.642C79.1416 21.3845 79.3726 21.0398 79.5241 20.608C79.6795 20.1761 79.7571 19.6951 79.7571 19.1648C79.7571 18.6307 79.6795 18.1477 79.5241 17.7159C79.3726 17.2803 79.1416 16.9337 78.831 16.6761C78.5204 16.4186 78.134 16.2898 77.6719 16.2898C77.1984 16.2898 76.8045 16.4186 76.4901 16.6761C76.1795 16.9337 75.9465 17.2803 75.7912 17.7159C75.6397 18.1477 75.5639 18.6307 75.5639 19.1648C75.5639 19.6951 75.6397 20.1761 75.7912 20.608C75.9465 21.0398 76.1795 21.3845 76.4901 21.642C76.8045 21.8958 77.1984 22.0227 77.6719 22.0227ZM83.5881 23.5V14.7727H85.6449V23.5H83.5881ZM84.6222 13.5341C84.2964 13.5341 84.0161 13.4261 83.7812 13.2102C83.5464 12.9905 83.429 12.7273 83.429 12.4205C83.429 12.1098 83.5464 11.8466 83.7812 11.6307C84.0161 11.411 84.2964 11.3011 84.6222 11.3011C84.9517 11.3011 85.232 11.411 85.4631 11.6307C85.6979 11.8466 85.8153 12.1098 85.8153 12.4205C85.8153 12.7273 85.6979 12.9905 85.4631 13.2102C85.232 13.4261 84.9517 13.5341 84.6222 13.5341ZM87.7599 26.7727V14.7727H89.7827V16.2159H89.902C90.008 16.0038 90.1577 15.7784 90.3509 15.5398C90.544 15.2973 90.8054 15.0909 91.1349 14.9205C91.4645 14.7462 91.8849 14.6591 92.3963 14.6591C93.0705 14.6591 93.6785 14.8314 94.2202 15.1761C94.7656 15.517 95.1974 16.0227 95.5156 16.6932C95.8376 17.3598 95.9986 18.178 95.9986 19.1477C95.9986 20.1061 95.8414 20.9205 95.527 21.5909C95.2126 22.2614 94.7846 22.7727 94.2429 23.125C93.7012 23.4773 93.0876 23.6534 92.402 23.6534C91.902 23.6534 91.4872 23.5701 91.1577 23.4034C90.8281 23.2367 90.563 23.036 90.3622 22.8011C90.1652 22.5625 90.0118 22.3371 89.902 22.125H89.8168V26.7727H87.7599ZM89.777 19.1364C89.777 19.7008 89.8565 20.1951 90.0156 20.6193C90.1785 21.0436 90.4115 21.375 90.7145 21.6136C91.0213 21.8485 91.3925 21.9659 91.8281 21.9659C92.2827 21.9659 92.6634 21.8447 92.9702 21.6023C93.277 21.3561 93.508 21.0208 93.6634 20.5966C93.8224 20.1686 93.902 19.6818 93.902 19.1364C93.902 18.5947 93.8243 18.1136 93.669 17.6932C93.5137 17.2727 93.2827 16.9432 92.9759 16.7045C92.669 16.4659 92.2865 16.3466 91.8281 16.3466C91.3887 16.3466 91.0156 16.4621 90.7088 16.6932C90.402 16.9242 90.169 17.2481 90.0099 17.6648C89.8546 18.0814 89.777 18.572 89.777 19.1364ZM104.658 17.0795L102.783 17.2841C102.73 17.0947 102.637 16.9167 102.504 16.75C102.375 16.5833 102.201 16.4489 101.982 16.3466C101.762 16.2443 101.493 16.1932 101.175 16.1932C100.747 16.1932 100.387 16.286 100.095 16.4716C99.8073 16.6572 99.6652 16.8977 99.669 17.1932C99.6652 17.447 99.758 17.6534 99.9474 17.8125C100.141 17.9716 100.459 18.1023 100.902 18.2045L102.391 18.5227C103.216 18.7008 103.83 18.983 104.232 19.3693C104.637 19.7557 104.841 20.2614 104.845 20.8864C104.841 21.4356 104.68 21.9205 104.362 22.3409C104.048 22.7576 103.61 23.0833 103.05 23.3182C102.489 23.553 101.845 23.6705 101.118 23.6705C100.05 23.6705 99.1899 23.447 98.5384 23C97.8868 22.5492 97.4986 21.9223 97.3736 21.1193L99.3793 20.9261C99.4702 21.3201 99.6634 21.6174 99.9588 21.8182C100.254 22.0189 100.639 22.1193 101.112 22.1193C101.601 22.1193 101.993 22.0189 102.288 21.8182C102.588 21.6174 102.737 21.3693 102.737 21.0739C102.737 20.8239 102.641 20.6174 102.447 20.4545C102.258 20.2917 101.963 20.1667 101.561 20.0795L100.072 19.767C99.2353 19.5928 98.616 19.2992 98.2145 18.8864C97.813 18.4697 97.6141 17.9432 97.6179 17.3068C97.6141 16.7689 97.7599 16.303 98.0554 15.9091C98.3546 15.5114 98.7694 15.2045 99.2997 14.9886C99.8338 14.7689 100.449 14.6591 101.146 14.6591C102.169 14.6591 102.974 14.8769 103.561 15.3125C104.152 15.7481 104.518 16.3371 104.658 17.0795ZM112.104 19.8295V14.7727H114.161V23.5H112.166V21.9489H112.075C111.878 22.4375 111.554 22.8371 111.104 23.1477C110.657 23.4583 110.106 23.6136 109.45 23.6136C108.878 23.6136 108.373 23.4867 107.933 23.233C107.498 22.9754 107.157 22.6023 106.911 22.1136C106.664 21.6212 106.541 21.0265 106.541 20.3295V14.7727H108.598V20.0114C108.598 20.5644 108.75 21.0038 109.053 21.3295C109.356 21.6553 109.753 21.8182 110.246 21.8182C110.549 21.8182 110.842 21.7443 111.126 21.5966C111.411 21.4489 111.643 21.2292 111.825 20.9375C112.011 20.642 112.104 20.2727 112.104 19.8295ZM116.276 23.5V14.7727H118.241V16.2557H118.344C118.526 15.7557 118.827 15.3655 119.247 15.0852C119.668 14.8011 120.17 14.6591 120.753 14.6591C121.344 14.6591 121.842 14.803 122.247 15.0909C122.656 15.375 122.944 15.7633 123.111 16.2557H123.202C123.395 15.7708 123.721 15.3845 124.179 15.0966C124.641 14.8049 125.188 14.6591 125.821 14.6591C126.624 14.6591 127.279 14.9129 127.787 15.4205C128.295 15.928 128.548 16.6686 128.548 17.642V23.5H126.486V17.9602C126.486 17.4186 126.342 17.0227 126.054 16.7727C125.766 16.5189 125.414 16.392 124.997 16.392C124.501 16.392 124.113 16.5473 123.832 16.858C123.556 17.1648 123.418 17.5644 123.418 18.0568V23.5H121.401V17.875C121.401 17.4242 121.264 17.0644 120.991 16.7955C120.723 16.5265 120.37 16.392 119.935 16.392C119.639 16.392 119.37 16.4678 119.128 16.6193C118.885 16.767 118.692 16.9773 118.548 17.25C118.404 17.5189 118.332 17.8333 118.332 18.1932V23.5H116.276Z" fill="#F2F3F3"/>
</svg>